<svg class="rich-terminal" viewBox="0 0 897 635.5999999999999" xmlns="http://www.w3.org/2000/svg">
    <!-- Generated with Rich https://www.textualize.io -->
    <style>

    @font-face {
        font-family: "Fira Code";
        src: local("FiraCode-Regular"),
                url("https://cdnjs.cloudflare.com/ajax/libs/firacode/6.2.0/woff2/FiraCode-Regular.woff2") format("woff2"),
                url("https://cdnjs.cloudflare.com/ajax/libs/firacode/6.2.0/woff/FiraCode-Regular.woff") format("woff");
        font-style: normal;
        font-weight: 400;
    }
    @font-face {
        font-family: "Fira Code";
        src: local("FiraCode-Bold"),
                url("https://cdnjs.cloudflare.com/ajax/libs/firacode/6.2.0/woff2/FiraCode-Bold.woff2") format("woff2"),
                url("https://cdnjs.cloudflare.com/ajax/libs/firacode/6.2.0/woff/FiraCode-Bold.woff") format("woff");
        font-style: bold;
        font-weight: 700;
    }

    .terminal-2909278872-matrix {
        font-family: Fira Code, monospace;
        font-size: 20px;
        line-height: 24.4px;
        font-variant-east-asian: full-width;
    }

    .terminal-2909278872-title {
        font-size: 18px;
        font-weight: bold;
        font-family: arial;
    }

    .terminal-2909278872-r1 { fill: #b0b0b0 }
.terminal-2909278872-r2 { fill: #c5c8c6 }
.terminal-2909278872-r3 { fill: #e0e0e0 }
.terminal-2909278872-r4 { fill: #797979 }
.terminal-2909278872-r5 { fill: #262626 }
.terminal-2909278872-r6 { fill: #656565 }
.terminal-2909278872-r7 { fill: #4f4f4f }
.terminal-2909278872-r8 { fill: #eaeaea;font-weight: bold }
.terminal-2909278872-r9 { fill: #1e1e1e }
.terminal-2909278872-r10 { fill: #000000 }
.terminal-2909278872-r11 { fill: #272727 }
.terminal-2909278872-r12 { fill: #b0b0b0;font-weight: bold }
.terminal-2909278872-r13 { fill: #515151 }
    </style>

    <defs>
    <clipPath id="terminal-2909278872-clip-terminal">
      <rect x="0" y="0" width="877.4" height="584.5999999999999" />
    </clipPath>
    <clipPath id="terminal-2909278872-line-0">
    <rect x="0" y="1.5" width="878.4" height="24.65"/>
            </clipPath>
<clipPath id="terminal-2909278872-line-1">
    <rect x="0" y="25.9" width="878.4" height="24.65"/>
            </clipPath>
<clipPath id="terminal-2909278872-line-2">
    <rect x="0" y="50.3" width="878.4" height="24.65"/>
            </clipPath>
<clipPath id="terminal-2909278872-line-3">
    <rect x="0" y="74.7" width="878.4" height="24.65"/>
            </clipPath>
<clipPath id="terminal-2909278872-line-4">
    <rect x="0" y="99.1" width="878.4" height="24.65"/>
            </clipPath>
<clipPath id="terminal-2909278872-line-5">
    <rect x="0" y="123.5" width="878.4" height="24.65"/>
            </clipPath>
<clipPath id="terminal-2909278872-line-6">
    <rect x="0" y="147.9" width="878.4" height="24.65"/>
            </clipPath>
<clipPath id="terminal-2909278872-line-7">
    <rect x="0" y="172.3" width="878.4" height="24.65"/>
            </clipPath>
<clipPath id="terminal-2909278872-line-8">
    <rect x="0" y="196.7" width="878.4" height="24.65"/>
            </clipPath>
<clipPath id="terminal-2909278872-line-9">
    <rect x="0" y="221.1" width="878.4" height="24.65"/>
            </clipPath>
<clipPath id="terminal-2909278872-line-10">
    <rect x="0" y="245.5" width="878.4" height="24.65"/>
            </clipPath>
<clipPath id="terminal-2909278872-line-11">
    <rect x="0" y="269.9" width="878.4" height="24.65"/>
            </clipPath>
<clipPath id="terminal-2909278872-line-12">
    <rect x="0" y="294.3" width="878.4" height="24.65"/>
            </clipPath>
<clipPath id="terminal-2909278872-line-13">
    <rect x="0" y="318.7" width="878.4" height="24.65"/>
            </clipPath>
<clipPath id="terminal-2909278872-line-14">
    <rect x="0" y="343.1" width="878.4" height="24.65"/>
            </clipPath>
<clipPath id="terminal-2909278872-line-15">
    <rect x="0" y="367.5" width="878.4" height="24.65"/>
            </clipPath>
<clipPath id="terminal-2909278872-line-16">
    <rect x="0" y="391.9" width="878.4" height="24.65"/>
            </clipPath>
<clipPath id="terminal-2909278872-line-17">
    <rect x="0" y="416.3" width="878.4" height="24.65"/>
            </clipPath>
<clipPath id="terminal-2909278872-line-18">
    <rect x="0" y="440.7" width="878.4" height="24.65"/>
            </clipPath>
<clipPath id="terminal-2909278872-line-19">
    <rect x="0" y="465.1" width="878.4" height="24.65"/>
            </clipPath>
<clipPath id="terminal-2909278872-line-20">
    <rect x="0" y="489.5" width="878.4" height="24.65"/>
            </clipPath>
<clipPath id="terminal-2909278872-line-21">
    <rect x="0" y="513.9" width="878.4" height="24.65"/>
            </clipPath>
<clipPath id="terminal-2909278872-line-22">
    <rect x="0" y="538.3" width="878.4" height="24.65"/>
            </clipPath>
    </defs>

    <rect fill="#292929" stroke="rgba(255,255,255,0.35)" stroke-width="1" x="1" y="1" width="895" height="633.6" rx="8"/><text class="terminal-2909278872-title" fill="#c5c8c6" text-anchor="middle" x="447" y="27">#97&#160;launcher-local&#160;experiment</text>
            <g transform="translate(26,22)">
            <circle cx="0" cy="0" r="7" fill="#ff5f57"/>
            <circle cx="22" cy="0" r="7" fill="#febc2e"/>
            <circle cx="44" cy="0" r="7" fill="#28c840"/>
            </g>
        
    <g transform="translate(9, 41)" clip-path="url(#terminal-2909278872-clip-terminal)">
    <rect fill="#272727" x="0" y="1.5" width="12.2" height="24.65" shape-rendering="crispEdges"/><rect fill="#272727" x="12.2" y="1.5" width="268.4" height="24.65" shape-rendering="crispEdges"/><rect fill="#272727" x="280.6" y="1.5" width="12.2" height="24.65" shape-rendering="crispEdges"/><rect fill="#121212" x="292.8" y="1.5" width="12.2" height="24.65" shape-rendering="crispEdges"/><rect fill="#121212" x="305" y="1.5" width="36.6" height="24.65" shape-rendering="crispEdges"/><rect fill="#121212" x="341.6" y="1.5" width="12.2" height="24.65" shape-rendering="crispEdges"/><rect fill="#121212" x="353.8" y="1.5" width="12.2" height="24.65" shape-rendering="crispEdges"/><rect fill="#121212" x="366" y="1.5" width="61" height="24.65" shape-rendering="crispEdges"/><rect fill="#121212" x="427" y="1.5" width="12.2" height="24.65" shape-rendering="crispEdges"/><rect fill="#121212" x="439.2" y="1.5" width="12.2" height="24.65" shape-rendering="crispEdges"/><rect fill="#121212" x="451.4" y="1.5" width="48.8" height="24.65" shape-rendering="crispEdges"/><rect fill="#121212" x="500.2" y="1.5" width="12.2" height="24.65" shape-rendering="crispEdges"/><rect fill="#121212" x="512.4" y="1.5" width="366" height="24.65" shape-rendering="crispEdges"/><rect fill="#272727" x="0" y="25.9" width="12.2" height="24.65" shape-rendering="crispEdges"/><rect fill="#272727" x="12.2" y="25.9" width="24.4" height="24.65" shape-rendering="crispEdges"/><rect fill="#272727" x="36.6" y="25.9" width="207.4" height="24.65" shape-rendering="crispEdges"/><rect fill="#272727" x="244" y="25.9" width="36.6" height="24.65" shape-rendering="crispEdges"/><rect fill="#272727" x="280.6" y="25.9" width="12.2" height="24.65" shape-rendering="crispEdges"/><rect fill="#121212" x="292.8" y="25.9" width="12.2" height="24.65" shape-rendering="crispEdges"/><rect fill="#121212" x="305" y="25.9" width="36.6" height="24.65" shape-rendering="crispEdges"/><rect fill="#121212" x="341.6" y="25.9" width="12.2" height="24.65" shape-rendering="crispEdges"/><rect fill="#121212" x="353.8" y="25.9" width="524.6" height="24.65" shape-rendering="crispEdges"/><rect fill="#272727" x="0" y="50.3" width="12.2" height="24.65" shape-rendering="crispEdges"/><rect fill="#272727" x="12.2" y="50.3" width="48.8" height="24.65" shape-rendering="crispEdges"/><rect fill="#272727" x="61" y="50.3" width="24.4" height="24.65" shape-rendering="crispEdges"/><rect fill="#272727" x="85.4" y="50.3" width="146.4" height="24.65" shape-rendering="crispEdges"/><rect fill="#272727" x="231.8" y="50.3" width="48.8" height="24.65" shape-rendering="crispEdges"/><rect fill="#272727" x="280.6" y="50.3" width="12.2" height="24.65" shape-rendering="crispEdges"/><rect fill="#121212" x="292.8" y="50.3" width="12.2" height="24.65" shape-rendering="crispEdges"/><rect fill="#121212" x="305" y="50.3" width="158.6" height="24.65" shape-rendering="crispEdges"/><rect fill="#121212" x="463.6" y="50.3" width="402.6" height="24.65" shape-rendering="crispEdges"/><rect fill="#121212" x="866.2" y="50.3" width="12.2" height="24.65" shape-rendering="crispEdges"/><rect fill="#272727" x="0" y="74.7" width="12.2" height="24.65" shape-rendering="crispEdges"/><rect fill="#272727" x="12.2" y="74.7" width="48.8" height="24.65" shape-rendering="crispEdges"/><rect fill="#272727" x="61" y="74.7" width="48.8" height="24.65" shape-rendering="crispEdges"/><rect fill="#656565" x="109.8" y="74.7" width="85.4" height="24.65" shape-rendering="crispEdges"/><rect fill="#272727" x="195.2" y="74.7" width="85.4" height="24.65" shape-rendering="crispEdges"/><rect fill="#272727" x="280.6" y="74.7" width="12.2" height="24.65" shape-rendering="crispEdges"/><rect fill="#121212" x="292.8" y="74.7" width="12.2" height="24.65" shape-rendering="crispEdges"/><rect fill="#121212" x="305" y="74.7" width="561.2" height="24.65" shape-rendering="crispEdges"/><rect fill="#121212" x="866.2" y="74.7" width="12.2" height="24.65" shape-rendering="crispEdges"/><rect fill="#272727" x="0" y="99.1" width="12.2" height="24.65" shape-rendering="crispEdges"/><rect fill="#272727" x="12.2" y="99.1" width="48.8" height="24.65" shape-rendering="crispEdges"/><rect fill="#272727" x="61" y="99.1" width="24.4" height="24.65" shape-rendering="crispEdges"/><rect fill="#272727" x="85.4" y="99.1" width="195.2" height="24.65" shape-rendering="crispEdges"/><rect fill="#272727" x="280.6" y="99.1" width="12.2" height="24.65" shape-rendering="crispEdges"/><rect fill="#121212" x="292.8" y="99.1" width="12.2" height="24.65" shape-rendering="crispEdges"/><rect fill="#121212" x="305" y="99.1" width="305" height="24.65" shape-rendering="crispEdges"/><rect fill="#121212" x="610" y="99.1" width="256.2" height="24.65" shape-rendering="crispEdges"/><rect fill="#121212" x="866.2" y="99.1" width="12.2" height="24.65" shape-rendering="crispEdges"/><rect fill="#272727" x="0" y="123.5" width="12.2" height="24.65" shape-rendering="crispEdges"/><rect fill="#272727" x="12.2" y="123.5" width="48.8" height="24.65" shape-rendering="crispEdges"/><rect fill="#272727" x="61" y="123.5" width="24.4" height="24.65" shape-rendering="crispEdges"/><rect fill="#272727" x="85.4" y="123.5" width="183" height="24.65" shape-rendering="crispEdges"/><rect fill="#272727" x="268.4" y="123.5" width="12.2" height="24.65" shape-rendering="crispEdges"/><rect fill="#272727" x="280.6" y="123.5" width="12.2" height="24.65" shape-rendering="crispEdges"/><rect fill="#121212" x="292.8" y="123.5" width="12.2" height="24.65" shape-rendering="crispEdges"/><rect fill="#121212" x="305" y="123.5" width="561.2" height="24.65" shape-rendering="crispEdges"/><rect fill="#121212" x="866.2" y="123.5" width="12.2" height="24.65" shape-rendering="crispEdges"/><rect fill="#272727" x="0" y="147.9" width="12.2" height="24.65" shape-rendering="crispEdges"/><rect fill="#272727" x="12.2" y="147.9" width="48.8" height="24.65" shape-rendering="crispEdges"/><rect fill="#272727" x="61" y="147.9" width="24.4" height="24.65" shape-rendering="crispEdges"/><rect fill="#272727" x="85.4" y="147.9" width="97.6" height="24.65" shape-rendering="crispEdges"/><rect fill="#272727" x="183" y="147.9" width="97.6" height="24.65" shape-rendering="crispEdges"/><rect fill="#272727" x="280.6" y="147.9" width="12.2" height="24.65" shape-rendering="crispEdges"/><rect fill="#121212" x="292.8" y="147.9" width="12.2" height="24.65" shape-rendering="crispEdges"/><rect fill="#121212" x="305" y="147.9" width="305" height="24.65" shape-rendering="crispEdges"/><rect fill="#121212" x="610" y="147.9" width="256.2" height="24.65" shape-rendering="crispEdges"/><rect fill="#121212" x="866.2" y="147.9" width="12.2" height="24.65" shape-rendering="crispEdges"/><rect fill="#272727" x="0" y="172.3" width="12.2" height="24.65" shape-rendering="crispEdges"/><rect fill="#272727" x="12.2" y="172.3" width="48.8" height="24.65" shape-rendering="crispEdges"/><rect fill="#272727" x="61" y="172.3" width="24.4" height="24.65" shape-rendering="crispEdges"/><rect fill="#272727" x="85.4" y="172.3" width="85.4" height="24.65" shape-rendering="crispEdges"/><rect fill="#272727" x="170.8" y="172.3" width="109.8" height="24.65" shape-rendering="crispEdges"/><rect fill="#272727" x="280.6" y="172.3" width="12.2" height="24.65" shape-rendering="crispEdges"/><rect fill="#121212" x="292.8" y="172.3" width="12.2" height="24.65" shape-rendering="crispEdges"/><rect fill="#1e1e1e" x="305" y="172.3" width="500.2" height="24.65" shape-rendering="crispEdges"/><rect fill="#1e1e1e" x="805.2" y="172.3" width="36.6" height="24.65" shape-rendering="crispEdges"/><rect fill="#282828" x="841.8" y="172.3" width="24.4" height="24.65" shape-rendering="crispEdges"/><rect fill="#121212" x="866.2" y="172.3" width="12.2" height="24.65" shape-rendering="crispEdges"/><rect fill="#272727" x="0" y="196.7" width="12.2" height="24.65" shape-rendering="crispEdges"/><rect fill="#272727" x="12.2" y="196.7" width="48.8" height="24.65" shape-rendering="crispEdges"/><rect fill="#272727" x="61" y="196.7" width="24.4" height="24.65" shape-rendering="crispEdges"/><rect fill="#272727" x="85.4" y="196.7" width="195.2" height="24.65" shape-rendering="crispEdges"/><rect fill="#272727" x="280.6" y="196.7" width="12.2" height="24.65" shape-rendering="crispEdges"/><rect fill="#121212" x="292.8" y="196.7" width="12.2" height="24.65" shape-rendering="crispEdges"/><rect fill="#1e1e1e" x="305" y="196.7" width="463.6" height="24.65" shape-rendering="crispEdges"/><rect fill="#1e1e1e" x="768.6" y="196.7" width="73.2" height="24.65" shape-rendering="crispEdges"/><rect fill="#282828" x="841.8" y="196.7" width="24.4" height="24.65" shape-rendering="crispEdges"/><rect fill="#121212" x="866.2" y="196.7" width="12.2" height="24.65" shape-rendering="crispEdges"/><rect fill="#272727" x="0" y="221.1" width="12.2" height="24.65" shape-rendering="crispEdges"/><rect fill="#272727" x="12.2" y="221.1" width="268.4" height="24.65" shape-rendering="crispEdges"/><rect fill="#272727" x="280.6" y="221.1" width="12.2" height="24.65" shape-rendering="crispEdges"/><rect fill="#121212" x="292.8" y="221.1" width="12.2" height="24.65" shape-rendering="crispEdges"/><rect fill="#1e1e1e" x="305" y="221.1" width="500.2" height="24.65" shape-rendering="crispEdges"/><rect fill="#1e1e1e" x="805.2" y="221.1" width="36.6" height="24.65" shape-rendering="crispEdges"/><rect fill="#282828" x="841.8" y="221.1" width="24.4" height="24.65" shape-rendering="crispEdges"/><rect fill="#121212" x="866.2" y="221.1" width="12.2" height="24.65" shape-rendering="crispEdges"/><rect fill="#272727" x="0" y="245.5" width="12.2" height="24.65" shape-rendering="crispEdges"/><rect fill="#272727" x="12.2" y="245.5" width="268.4" height="24.65" shape-rendering="crispEdges"/><rect fill="#272727" x="280.6" y="245.5" width="12.2" height="24.65" shape-rendering="crispEdges"/><rect fill="#121212" x="292.8" y="245.5" width="12.2" height="24.65" shape-rendering="crispEdges"/><rect fill="#1e1e1e" x="305" y="245.5" width="146.4" height="24.65" shape-rendering="crispEdges"/><rect fill="#1e1e1e" x="451.4" y="245.5" width="390.4" height="24.65" shape-rendering="crispEdges"/><rect fill="#000000" x="841.8" y="245.5" width="24.4" height="24.65" shape-rendering="crispEdges"/><rect fill="#121212" x="866.2" y="245.5" width="12.2" height="24.65" shape-rendering="crispEdges"/><rect fill="#272727" x="0" y="269.9" width="12.2" height="24.65" shape-rendering="crispEdges"/><rect fill="#272727" x="12.2" y="269.9" width="268.4" height="24.65" shape-rendering="crispEdges"/><rect fill="#272727" x="280.6" y="269.9" width="12.2" height="24.65" shape-rendering="crispEdges"/><rect fill="#121212" x="292.8" y="269.9" width="12.2" height="24.65" shape-rendering="crispEdges"/><rect fill="#1e1e1e" x="305" y="269.9" width="536.8" height="24.65" shape-rendering="crispEdges"/><rect fill="#000000" x="841.8" y="269.9" width="24.4" height="24.65" shape-rendering="crispEdges"/><rect fill="#121212" x="866.2" y="269.9" width="12.2" height="24.65" shape-rendering="crispEdges"/><rect fill="#272727" x="0" y="294.3" width="12.2" height="24.65" shape-rendering="crispEdges"/><rect fill="#272727" x="12.2" y="294.3" width="268.4" height="24.65" shape-rendering="crispEdges"/><rect fill="#272727" x="280.6" y="294.3" width="12.2" height="24.65" shape-rendering="crispEdges"/><rect fill="#121212" x="292.8" y="294.3" width="12.2" height="24.65" shape-rendering="crispEdges"/><rect fill="#1e1e1e" x="305" y="294.3" width="341.6" height="24.65" shape-rendering="crispEdges"/><rect fill="#1e1e1e" x="646.6" y="294.3" width="195.2" height="24.65" shape-rendering="crispEdges"/><rect fill="#000000" x="841.8" y="294.3" width="24.4" height="24.65" shape-rendering="crispEdges"/><rect fill="#121212" x="866.2" y="294.3" width="12.2" height="24.65" shape-rendering="crispEdges"/><rect fill="#272727" x="0" y="318.7" width="12.2" height="24.65" shape-rendering="crispEdges"/><rect fill="#272727" x="12.2" y="318.7" width="268.4" height="24.65" shape-rendering="crispEdges"/><rect fill="#272727" x="280.6" y="318.7" width="12.2" height="24.65" shape-rendering="crispEdges"/><rect fill="#121212" x="292.8" y="318.7" width="12.2" height="24.65" shape-rendering="crispEdges"/><rect fill="#1e1e1e" x="305" y="318.7" width="524.6" height="24.65" shape-rendering="crispEdges"/><rect fill="#1e1e1e" x="829.6" y="318.7" width="12.2" height="24.65" shape-rendering="crispEdges"/><rect fill="#000000" x="841.8" y="318.7" width="24.4" height="24.65" shape-rendering="crispEdges"/><rect fill="#121212" x="866.2" y="318.7" width="12.2" height="24.65" shape-rendering="crispEdges"/><rect fill="#272727" x="0" y="343.1" width="12.2" height="24.65" shape-rendering="crispEdges"/><rect fill="#272727" x="12.2" y="343.1" width="268.4" height="24.65" shape-rendering="crispEdges"/><rect fill="#272727" x="280.6" y="343.1" width="12.2" height="24.65" shape-rendering="crispEdges"/><rect fill="#121212" x="292.8" y="343.1" width="12.2" height="24.65" shape-rendering="crispEdges"/><rect fill="#1e1e1e" x="305" y="343.1" width="170.8" height="24.65" shape-rendering="crispEdges"/><rect fill="#1e1e1e" x="475.8" y="343.1" width="366" height="24.65" shape-rendering="crispEdges"/><rect fill="#000000" x="841.8" y="343.1" width="24.4" height="24.65" shape-rendering="crispEdges"/><rect fill="#121212" x="866.2" y="343.1" width="12.2" height="24.65" shape-rendering="crispEdges"/><rect fill="#272727" x="0" y="367.5" width="12.2" height="24.65" shape-rendering="crispEdges"/><rect fill="#272727" x="12.2" y="367.5" width="268.4" height="24.65" shape-rendering="crispEdges"/><rect fill="#272727" x="280.6" y="367.5" width="12.2" height="24.65" shape-rendering="crispEdges"/><rect fill="#121212" x="292.8" y="367.5" width="12.2" height="24.65" shape-rendering="crispEdges"/><rect fill="#1e1e1e" x="305" y="367.5" width="475.8" height="24.65" shape-rendering="crispEdges"/><rect fill="#1e1e1e" x="780.8" y="367.5" width="61" height="24.65" shape-rendering="crispEdges"/><rect fill="#000000" x="841.8" y="367.5" width="24.4" height="24.65" shape-rendering="crispEdges"/><rect fill="#121212" x="866.2" y="367.5" width="12.2" height="24.65" shape-rendering="crispEdges"/><rect fill="#272727" x="0" y="391.9" width="12.2" height="24.65" shape-rendering="crispEdges"/><rect fill="#272727" x="12.2" y="391.9" width="268.4" height="24.65" shape-rendering="crispEdges"/><rect fill="#272727" x="280.6" y="391.9" width="12.2" height="24.65" shape-rendering="crispEdges"/><rect fill="#121212" x="292.8" y="391.9" width="12.2" height="24.65" shape-rendering="crispEdges"/><rect fill="#1e1e1e" x="305" y="391.9" width="366" height="24.65" shape-rendering="crispEdges"/><rect fill="#1e1e1e" x="671" y="391.9" width="170.8" height="24.65" shape-rendering="crispEdges"/><rect fill="#000000" x="841.8" y="391.9" width="24.4" height="24.65" shape-rendering="crispEdges"/><rect fill="#121212" x="866.2" y="391.9" width="12.2" height="24.65" shape-rendering="crispEdges"/><rect fill="#272727" x="0" y="416.3" width="12.2" height="24.65" shape-rendering="crispEdges"/><rect fill="#272727" x="12.2" y="416.3" width="268.4" height="24.65" shape-rendering="crispEdges"/><rect fill="#272727" x="280.6" y="416.3" width="12.2" height="24.65" shape-rendering="crispEdges"/><rect fill="#121212" x="292.8" y="416.3" width="12.2" height="24.65" shape-rendering="crispEdges"/><rect fill="#1e1e1e" x="305" y="416.3" width="231.8" height="24.65" shape-rendering="crispEdges"/><rect fill="#1e1e1e" x="536.8" y="416.3" width="305" height="24.65" shape-rendering="crispEdges"/><rect fill="#000000" x="841.8" y="416.3" width="24.4" height="24.65" shape-rendering="crispEdges"/><rect fill="#121212" x="866.2" y="416.3" width="12.2" height="24.65" shape-rendering="crispEdges"/><rect fill="#272727" x="0" y="440.7" width="12.2" height="24.65" shape-rendering="crispEdges"/><rect fill="#272727" x="12.2" y="440.7" width="268.4" height="24.65" shape-rendering="crispEdges"/><rect fill="#272727" x="280.6" y="440.7" width="12.2" height="24.65" shape-rendering="crispEdges"/><rect fill="#121212" x="292.8" y="440.7" width="12.2" height="24.65" shape-rendering="crispEdges"/><rect fill="#1e1e1e" x="305" y="440.7" width="536.8" height="24.65" shape-rendering="crispEdges"/><rect fill="#000000" x="841.8" y="440.7" width="24.4" height="24.65" shape-rendering="crispEdges"/><rect fill="#121212" x="866.2" y="440.7" width="12.2" height="24.65" shape-rendering="crispEdges"/><rect fill="#272727" x="0" y="465.1" width="12.2" height="24.65" shape-rendering="crispEdges"/><rect fill="#282828" x="12.2" y="465.1" width="12.2" height="24.65" shape-rendering="crispEdges"/><rect fill="#282828" x="24.4" y="465.1" width="12.2" height="24.65" shape-rendering="crispEdges"/><rect fill="#282828" x="36.6" y="465.1" width="12.2" height="24.65" shape-rendering="crispEdges"/><rect fill="#282828" x="48.8" y="465.1" width="12.2" height="24.65" shape-rendering="crispEdges"/><rect fill="#282828" x="61" y="465.1" width="12.2" height="24.65" shape-rendering="crispEdges"/><rect fill="#282828" x="73.2" y="465.1" width="12.2" height="24.65" shape-rendering="crispEdges"/><rect fill="#282828" x="85.4" y="465.1" width="12.2" height="24.65" shape-rendering="crispEdges"/><rect fill="#282828" x="97.6" y="465.1" width="12.2" height="24.65" shape-rendering="crispEdges"/><rect fill="#282828" x="109.8" y="465.1" width="12.2" height="24.65" shape-rendering="crispEdges"/><rect fill="#282828" x="122" y="465.1" width="12.2" height="24.65" shape-rendering="crispEdges"/><rect fill="#282828" x="134.2" y="465.1" width="12.2" height="24.65" shape-rendering="crispEdges"/><rect fill="#282828" x="146.4" y="465.1" width="12.2" height="24.65" shape-rendering="crispEdges"/><rect fill="#282828" x="158.6" y="465.1" width="12.2" height="24.65" shape-rendering="crispEdges"/><rect fill="#282828" x="170.8" y="465.1" width="12.2" height="24.65" shape-rendering="crispEdges"/><rect fill="#282828" x="183" y="465.1" width="12.2" height="24.65" shape-rendering="crispEdges"/><rect fill="#282828" x="195.2" y="465.1" width="12.2" height="24.65" shape-rendering="crispEdges"/><rect fill="#282828" x="207.4" y="465.1" width="12.2" height="24.65" shape-rendering="crispEdges"/><rect fill="#282828" x="219.6" y="465.1" width="12.2" height="24.65" shape-rendering="crispEdges"/><rect fill="#000000" x="231.8" y="465.1" width="12.2" height="24.65" shape-rendering="crispEdges"/><rect fill="#000000" x="244" y="465.1" width="12.2" height="24.65" shape-rendering="crispEdges"/><rect fill="#000000" x="256.2" y="465.1" width="12.2" height="24.65" shape-rendering="crispEdges"/><rect fill="#000000" x="268.4" y="465.1" width="12.2" height="24.65" shape-rendering="crispEdges"/><rect fill="#272727" x="280.6" y="465.1" width="12.2" height="24.65" shape-rendering="crispEdges"/><rect fill="#121212" x="292.8" y="465.1" width="12.2" height="24.65" shape-rendering="crispEdges"/><rect fill="#1e1e1e" x="305" y="465.1" width="500.2" height="24.65" shape-rendering="crispEdges"/><rect fill="#1e1e1e" x="805.2" y="465.1" width="36.6" height="24.65" shape-rendering="crispEdges"/><rect fill="#000000" x="841.8" y="465.1" width="24.4" height="24.65" shape-rendering="crispEdges"/><rect fill="#121212" x="866.2" y="465.1" width="12.2" height="24.65" shape-rendering="crispEdges"/><rect fill="#272727" x="0" y="489.5" width="12.2" height="24.65" shape-rendering="crispEdges"/><rect fill="#272727" x="12.2" y="489.5" width="268.4" height="24.65" shape-rendering="crispEdges"/><rect fill="#272727" x="280.6" y="489.5" width="12.2" height="24.65" shape-rendering="crispEdges"/><rect fill="#121212" x="292.8" y="489.5" width="12.2" height="24.65" shape-rendering="crispEdges"/><rect fill="#1e1e1e" x="305" y="489.5" width="244" height="24.65" shape-rendering="crispEdges"/><rect fill="#1e1e1e" x="549" y="489.5" width="292.8" height="24.65" shape-rendering="crispEdges"/><rect fill="#000000" x="841.8" y="489.5" width="24.4" height="24.65" shape-rendering="crispEdges"/><rect fill="#121212" x="866.2" y="489.5" width="12.2" height="24.65" shape-rendering="crispEdges"/><rect fill="#121212" x="0" y="513.9" width="671" height="24.65" shape-rendering="crispEdges"/><rect fill="#121212" x="671" y="513.9" width="207.4" height="24.65" shape-rendering="crispEdges"/><rect fill="#121212" x="0" y="538.3" width="719.8" height="24.65" shape-rendering="crispEdges"/><rect fill="#121212" x="719.8" y="538.3" width="158.6" height="24.65" shape-rendering="crispEdges"/><rect fill="#2d2d2d" x="0" y="562.7" width="73.2" height="24.65" shape-rendering="crispEdges"/><rect fill="#2d2d2d" x="73.2" y="562.7" width="122" height="24.65" shape-rendering="crispEdges"/><rect fill="#2d2d2d" x="195.2" y="562.7" width="73.2" height="24.65" shape-rendering="crispEdges"/><rect fill="#2d2d2d" x="268.4" y="562.7" width="146.4" height="24.65" shape-rendering="crispEdges"/><rect fill="#2d2d2d" x="414.8" y="562.7" width="36.6" height="24.65" shape-rendering="crispEdges"/><rect fill="#2d2d2d" x="451.4" y="562.7" width="134.2" height="24.65" shape-rendering="crispEdges"/><rect fill="#2d2d2d" x="585.6" y="562.7" width="36.6" height="24.65" shape-rendering="crispEdges"/><rect fill="#2d2d2d" x="622.2" y="562.7" width="109.8" height="24.65" shape-rendering="crispEdges"/><rect fill="#2d2d2d" x="732" y="562.7" width="12.2" height="24.65" shape-rendering="crispEdges"/><rect fill="#2d2d2d" x="744.2" y="562.7" width="12.2" height="24.65" shape-rendering="crispEdges"/><rect fill="#2d2d2d" x="756.4" y="562.7" width="12.2" height="24.65" shape-rendering="crispEdges"/><rect fill="#2d2d2d" x="768.6" y="562.7" width="97.6" height="24.65" shape-rendering="crispEdges"/><rect fill="#2d2d2d" x="866.2" y="562.7" width="12.2" height="24.65" shape-rendering="crispEdges"/>
    <g class="terminal-2909278872-matrix">
    <text class="terminal-2909278872-r1" x="0" y="20" textLength="12.2" clip-path="url(#terminal-2909278872-line-0)">┌</text><text class="terminal-2909278872-r1" x="12.2" y="20" textLength="268.4" clip-path="url(#terminal-2909278872-line-0)">──────────────────────</text><text class="terminal-2909278872-r1" x="280.6" y="20" textLength="12.2" clip-path="url(#terminal-2909278872-line-0)">┐</text><text class="terminal-2909278872-r3" x="305" y="20" textLength="36.6" clip-path="url(#terminal-2909278872-line-0)">Log</text><text class="terminal-2909278872-r4" x="366" y="20" textLength="61" clip-path="url(#terminal-2909278872-line-0)">Issue</text><text class="terminal-2909278872-r4" x="451.4" y="20" textLength="48.8" clip-path="url(#terminal-2909278872-line-0)">Runs</text><text class="terminal-2909278872-r2" x="878.4" y="20" textLength="12.2" clip-path="url(#terminal-2909278872-line-0)">
</text><text class="terminal-2909278872-r1" x="0" y="44.4" textLength="12.2" clip-path="url(#terminal-2909278872-line-1)">│</text><text class="terminal-2909278872-r3" x="12.2" y="44.4" textLength="24.4" clip-path="url(#terminal-2909278872-line-1)">▼&#160;</text><text class="terminal-2909278872-r3" x="36.6" y="44.4" textLength="207.4" clip-path="url(#terminal-2909278872-line-1)">Last&#160;observations</text><text class="terminal-2909278872-r1" x="280.6" y="44.4" textLength="12.2" clip-path="url(#terminal-2909278872-line-1)">│</text><text class="terminal-2909278872-r5" x="292.8" y="44.4" textLength="12.2" clip-path="url(#terminal-2909278872-line-1)">╸</text><text class="terminal-2909278872-r6" x="305" y="44.4" textLength="36.6" clip-path="url(#terminal-2909278872-line-1)">━━━</text><text class="terminal-2909278872-r5" x="341.6" y="44.4" textLength="12.2" clip-path="url(#terminal-2909278872-line-1)">╺</text><text class="terminal-2909278872-r5" x="353.8" y="44.4" textLength="524.6" clip-path="url(#terminal-2909278872-line-1)">━━━━━━━━━━━━━━━━━━━━━━━━━━━━━━━━━━━━━━━━━━━</text><text class="terminal-2909278872-r2" x="878.4" y="44.4" textLength="12.2" clip-path="url(#terminal-2909278872-line-1)">
</text><text class="terminal-2909278872-r1" x="0" y="68.8" textLength="12.2" clip-path="url(#terminal-2909278872-line-2)">│</text><text class="terminal-2909278872-r7" x="12.2" y="68.8" textLength="48.8" clip-path="url(#terminal-2909278872-line-2)">├──&#160;</text><text class="terminal-2909278872-r3" x="61" y="68.8" textLength="24.4" clip-path="url(#terminal-2909278872-line-2)">▼&#160;</text><text class="terminal-2909278872-r3" x="85.4" y="68.8" textLength="146.4" clip-path="url(#terminal-2909278872-line-2)">Current&#160;work</text><text class="terminal-2909278872-r1" x="280.6" y="68.8" textLength="12.2" clip-path="url(#terminal-2909278872-line-2)">│</text><text class="terminal-2909278872-r3" x="305" y="68.8" textLength="158.6" clip-path="url(#terminal-2909278872-line-2)">Raw&#160;fallback:</text><text class="terminal-2909278872-r2" x="878.4" y="68.8" textLength="12.2" clip-path="url(#terminal-2909278872-line-2)">
</text><text class="terminal-2909278872-r1" x="0" y="93.2" textLength="12.2" clip-path="url(#terminal-2909278872-line-3)">│</text><text class="terminal-2909278872-r7" x="12.2" y="93.2" textLength="48.8" clip-path="url(#terminal-2909278872-line-3)">│&#160;&#160;&#160;</text><text class="terminal-2909278872-r7" x="61" y="93.2" textLength="48.8" clip-path="url(#terminal-2909278872-line-3)">└──&#160;</text><text class="terminal-2909278872-r8" x="109.8" y="93.2" textLength="85.4" clip-path="url(#terminal-2909278872-line-3)">#1&#160;Work</text><text class="terminal-2909278872-r1" x="280.6" y="93.2" textLength="12.2" clip-path="url(#terminal-2909278872-line-3)">│</text><text class="terminal-2909278872-r3" x="305" y="93.2" textLength="561.2" clip-path="url(#terminal-2909278872-line-3)">tmp3diwge45/.ub-agent/runs/f7c8b5d57bdf4072b58</text><text class="terminal-2909278872-r2" x="878.4" y="93.2" textLength="12.2" clip-path="url(#terminal-2909278872-line-3)">
</text><text class="terminal-2909278872-r1" x="0" y="117.6" textLength="12.2" clip-path="url(#terminal-2909278872-line-4)">│</text><text class="terminal-2909278872-r7" x="12.2" y="117.6" textLength="48.8" clip-path="url(#terminal-2909278872-line-4)">├──&#160;</text><text class="terminal-2909278872-r3" x="61" y="117.6" textLength="24.4" clip-path="url(#terminal-2909278872-line-4)">▼&#160;</text><text class="terminal-2909278872-r3" x="85.4" y="117.6" textLength="195.2" clip-path="url(#terminal-2909278872-line-4)">Observed&#160;ownersh</text><text class="terminal-2909278872-r1" x="280.6" y="117.6" textLength="12.2" clip-path="url(#terminal-2909278872-line-4)">│</text><text class="terminal-2909278872-r3" x="305" y="117.6" textLength="305" clip-path="url(#terminal-2909278872-line-4)">b241bdb532a2f/process.log</text><text class="terminal-2909278872-r2" x="878.4" y="117.6" textLength="12.2" clip-path="url(#terminal-2909278872-line-4)">
</text><text class="terminal-2909278872-r1" x="0" y="142" textLength="12.2" clip-path="url(#terminal-2909278872-line-5)">│</text><text class="terminal-2909278872-r7" x="12.2" y="142" textLength="48.8" clip-path="url(#terminal-2909278872-line-5)">├──&#160;</text><text class="terminal-2909278872-r3" x="61" y="142" textLength="24.4" clip-path="url(#terminal-2909278872-line-5)">▼&#160;</text><text class="terminal-2909278872-r3" x="85.4" y="142" textLength="183" clip-path="url(#terminal-2909278872-line-5)">Needs&#160;attention</text><text class="terminal-2909278872-r1" x="280.6" y="142" textLength="12.2" clip-path="url(#terminal-2909278872-line-5)">│</text><text class="terminal-2909278872-r3" x="305" y="142" textLength="561.2" clip-path="url(#terminal-2909278872-line-5)">PAUSED&#160;·&#160;12/200&#160;records&#160;·&#160;evicted&#160;0&#160;·&#160;last&#160;400</text><text class="terminal-2909278872-r2" x="878.4" y="142" textLength="12.2" clip-path="url(#terminal-2909278872-line-5)">
</text><text class="terminal-2909278872-r1" x="0" y="166.4" textLength="12.2" clip-path="url(#terminal-2909278872-line-6)">│</text><text class="terminal-2909278872-r7" x="12.2" y="166.4" textLength="48.8" clip-path="url(#terminal-2909278872-line-6)">├──&#160;</text><text class="terminal-2909278872-r3" x="61" y="166.4" textLength="24.4" clip-path="url(#terminal-2909278872-line-6)">▼&#160;</text><text class="terminal-2909278872-r3" x="85.4" y="166.4" textLength="97.6" clip-path="url(#terminal-2909278872-line-6)">Eligible</text><text class="terminal-2909278872-r1" x="280.6" y="166.4" textLength="12.2" clip-path="url(#terminal-2909278872-line-6)">│</text><text class="terminal-2909278872-r3" x="305" y="166.4" textLength="305" clip-path="url(#terminal-2909278872-line-6)">rendered&#160;lines&#160;·&#160;unread&#160;0</text><text class="terminal-2909278872-r2" x="878.4" y="166.4" textLength="12.2" clip-path="url(#terminal-2909278872-line-6)">
</text><text class="terminal-2909278872-r1" x="0" y="190.8" textLength="12.2" clip-path="url(#terminal-2909278872-line-7)">│</text><text class="terminal-2909278872-r7" x="12.2" y="190.8" textLength="48.8" clip-path="url(#terminal-2909278872-line-7)">├──&#160;</text><text class="terminal-2909278872-r3" x="61" y="190.8" textLength="24.4" clip-path="url(#terminal-2909278872-line-7)">▼&#160;</text><text class="terminal-2909278872-r3" x="85.4" y="190.8" textLength="85.4" clip-path="url(#terminal-2909278872-line-7)">Waiting</text><text class="terminal-2909278872-r1" x="280.6" y="190.8" textLength="12.2" clip-path="url(#terminal-2909278872-line-7)">│</text><text class="terminal-2909278872-r3" x="305" y="190.8" textLength="500.2" clip-path="url(#terminal-2909278872-line-7)">event=—&#160;·&#160;capture=—&#160;(historical)&#160;·&#160;system</text><text class="terminal-2909278872-r2" x="878.4" y="190.8" textLength="12.2" clip-path="url(#terminal-2909278872-line-7)">
</text><text class="terminal-2909278872-r1" x="0" y="215.2" textLength="12.2" clip-path="url(#terminal-2909278872-line-8)">│</text><text class="terminal-2909278872-r7" x="12.2" y="215.2" textLength="48.8" clip-path="url(#terminal-2909278872-line-8)">└──&#160;</text><text class="terminal-2909278872-r3" x="61" y="215.2" textLength="24.4" clip-path="url(#terminal-2909278872-line-8)">▶&#160;</text><text class="terminal-2909278872-r3" x="85.4" y="215.2" textLength="195.2" clip-path="url(#terminal-2909278872-line-8)">Local&#160;recent&#160;act</text><text class="terminal-2909278872-r1" x="280.6" y="215.2" textLength="12.2" clip-path="url(#terminal-2909278872-line-8)">│</text><text class="terminal-2909278872-r3" x="305" y="215.2" textLength="463.6" clip-path="url(#terminal-2909278872-line-8)">{&quot;type&quot;:&#160;&quot;system&quot;,&#160;&quot;subtype&quot;:&#160;&quot;init&quot;,&#160;</text><text class="terminal-2909278872-r2" x="878.4" y="215.2" textLength="12.2" clip-path="url(#terminal-2909278872-line-8)">
</text><text class="terminal-2909278872-r1" x="0" y="239.6" textLength="12.2" clip-path="url(#terminal-2909278872-line-9)">│</text><text class="terminal-2909278872-r1" x="280.6" y="239.6" textLength="12.2" clip-path="url(#terminal-2909278872-line-9)">│</text><text class="terminal-2909278872-r3" x="305" y="239.6" textLength="500.2" clip-path="url(#terminal-2909278872-line-9)">&quot;tools&quot;:&#160;[&quot;Read&quot;,&#160;&quot;Bash&quot;],&#160;&quot;session_id&quot;:&#160;</text><text class="terminal-2909278872-r10" x="841.8" y="239.6" textLength="24.4" clip-path="url(#terminal-2909278872-line-9)">▇▇</text><text class="terminal-2909278872-r2" x="878.4" y="239.6" textLength="12.2" clip-path="url(#terminal-2909278872-line-9)">
</text><text class="terminal-2909278872-r1" x="0" y="264" textLength="12.2" clip-path="url(#terminal-2909278872-line-10)">│</text><text class="terminal-2909278872-r1" x="280.6" y="264" textLength="12.2" clip-path="url(#terminal-2909278872-line-10)">│</text><text class="terminal-2909278872-r3" x="305" y="264" textLength="146.4" clip-path="url(#terminal-2909278872-line-10)">&quot;synthetic&quot;}</text><text class="terminal-2909278872-r2" x="878.4" y="264" textLength="12.2" clip-path="url(#terminal-2909278872-line-10)">
</text><text class="terminal-2909278872-r1" x="0" y="288.4" textLength="12.2" clip-path="url(#terminal-2909278872-line-11)">│</text><text class="terminal-2909278872-r1" x="280.6" y="288.4" textLength="12.2" clip-path="url(#terminal-2909278872-line-11)">│</text><text class="terminal-2909278872-r3" x="305" y="288.4" textLength="536.8" clip-path="url(#terminal-2909278872-line-11)">event=—&#160;·&#160;capture=—&#160;(historical)&#160;·&#160;assistant</text><text class="terminal-2909278872-r2" x="878.4" y="288.4" textLength="12.2" clip-path="url(#terminal-2909278872-line-11)">
</text><text class="terminal-2909278872-r1" x="0" y="312.8" textLength="12.2" clip-path="url(#terminal-2909278872-line-12)">│</text><text class="terminal-2909278872-r1" x="280.6" y="312.8" textLength="12.2" clip-path="url(#terminal-2909278872-line-12)">│</text><text class="terminal-2909278872-r3" x="305" y="312.8" textLength="341.6" clip-path="url(#terminal-2909278872-line-12)">Inspecting&#160;a&#160;synthetic&#160;file.</text><text class="terminal-2909278872-r2" x="878.4" y="312.8" textLength="12.2" clip-path="url(#terminal-2909278872-line-12)">
</text><text class="terminal-2909278872-r1" x="0" y="337.2" textLength="12.2" clip-path="url(#terminal-2909278872-line-13)">│</text><text class="terminal-2909278872-r1" x="280.6" y="337.2" textLength="12.2" clip-path="url(#terminal-2909278872-line-13)">│</text><text class="terminal-2909278872-r3" x="305" y="337.2" textLength="524.6" clip-path="url(#terminal-2909278872-line-13)">tool&#160;Read&#160;id=synthetic-read:&#160;{&quot;file_path&quot;:&#160;</text><text class="terminal-2909278872-r2" x="878.4" y="337.2" textLength="12.2" clip-path="url(#terminal-2909278872-line-13)">
</text><text class="terminal-2909278872-r1" x="0" y="361.6" textLength="12.2" clip-path="url(#terminal-2909278872-line-14)">│</text><text class="terminal-2909278872-r1" x="280.6" y="361.6" textLength="12.2" clip-path="url(#terminal-2909278872-line-14)">│</text><text class="terminal-2909278872-r3" x="305" y="361.6" textLength="170.8" clip-path="url(#terminal-2909278872-line-14)">&quot;READ_ME.txt&quot;}</text><text class="terminal-2909278872-r2" x="878.4" y="361.6" textLength="12.2" clip-path="url(#terminal-2909278872-line-14)">
</text><text class="terminal-2909278872-r1" x="0" y="386" textLength="12.2" clip-path="url(#terminal-2909278872-line-15)">│</text><text class="terminal-2909278872-r1" x="280.6" y="386" textLength="12.2" clip-path="url(#terminal-2909278872-line-15)">│</text><text class="terminal-2909278872-r3" x="305" y="386" textLength="475.8" clip-path="url(#terminal-2909278872-line-15)">event=—&#160;·&#160;capture=—&#160;(historical)&#160;·&#160;user</text><text class="terminal-2909278872-r2" x="878.4" y="386" textLength="12.2" clip-path="url(#terminal-2909278872-line-15)">
</text><text class="terminal-2909278872-r1" x="0" y="410.4" textLength="12.2" clip-path="url(#terminal-2909278872-line-16)">│</text><text class="terminal-2909278872-r1" x="280.6" y="410.4" textLength="12.2" clip-path="url(#terminal-2909278872-line-16)">│</text><text class="terminal-2909278872-r3" x="305" y="410.4" textLength="366" clip-path="url(#terminal-2909278872-line-16)">tool&#160;result&#160;id=synthetic-read:</text><text class="terminal-2909278872-r2" x="878.4" y="410.4" textLength="12.2" clip-path="url(#terminal-2909278872-line-16)">
</text><text class="terminal-2909278872-r1" x="0" y="434.8" textLength="12.2" clip-path="url(#terminal-2909278872-line-17)">│</text><text class="terminal-2909278872-r1" x="280.6" y="434.8" textLength="12.2" clip-path="url(#terminal-2909278872-line-17)">│</text><text class="terminal-2909278872-r3" x="305" y="434.8" textLength="231.8" clip-path="url(#terminal-2909278872-line-17)">SPIKE97_OBSERVER_OK</text><text class="terminal-2909278872-r2" x="878.4" y="434.8" textLength="12.2" clip-path="url(#terminal-2909278872-line-17)">
</text><text class="terminal-2909278872-r1" x="0" y="459.2" textLength="12.2" clip-path="url(#terminal-2909278872-line-18)">│</text><text class="terminal-2909278872-r1" x="280.6" y="459.2" textLength="12.2" clip-path="url(#terminal-2909278872-line-18)">│</text><text class="terminal-2909278872-r3" x="305" y="459.2" textLength="536.8" clip-path="url(#terminal-2909278872-line-18)">event=—&#160;·&#160;capture=—&#160;(historical)&#160;·&#160;assistant</text><text class="terminal-2909278872-r2" x="878.4" y="459.2" textLength="12.2" clip-path="url(#terminal-2909278872-line-18)">
</text><text class="terminal-2909278872-r1" x="0" y="483.6" textLength="12.2" clip-path="url(#terminal-2909278872-line-19)">│</text><text class="terminal-2909278872-r1" x="280.6" y="483.6" textLength="12.2" clip-path="url(#terminal-2909278872-line-19)">│</text><text class="terminal-2909278872-r3" x="305" y="483.6" textLength="500.2" clip-path="url(#terminal-2909278872-line-19)">tool&#160;Bash&#160;id=synthetic-long:&#160;{&quot;command&quot;:&#160;</text><text class="terminal-2909278872-r2" x="878.4" y="483.6" textLength="12.2" clip-path="url(#terminal-2909278872-line-19)">
</text><text class="terminal-2909278872-r1" x="0" y="508" textLength="12.2" clip-path="url(#terminal-2909278872-line-20)">└</text><text class="terminal-2909278872-r1" x="12.2" y="508" textLength="268.4" clip-path="url(#terminal-2909278872-line-20)">──────────────────────</text><text class="terminal-2909278872-r1" x="280.6" y="508" textLength="12.2" clip-path="url(#terminal-2909278872-line-20)">┘</text><text class="terminal-2909278872-r3" x="305" y="508" textLength="244" clip-path="url(#terminal-2909278872-line-20)">&quot;cat&#160;synthetic.txt&quot;}</text><text class="terminal-2909278872-r2" x="878.4" y="508" textLength="12.2" clip-path="url(#terminal-2909278872-line-20)">
</text><text class="terminal-2909278872-r3" x="0" y="532.4" textLength="671" clip-path="url(#terminal-2909278872-line-21)">Local&#160;4s&#160;old&#160;·&#160;recent&#160;0/20&#160;·&#160;evicted&#160;0&#160;·&#160;detail&#160;reads&#160;0</text><text class="terminal-2909278872-r2" x="878.4" y="532.4" textLength="12.2" clip-path="url(#terminal-2909278872-line-21)">
</text><text class="terminal-2909278872-r3" x="0" y="556.8" textLength="719.8" clip-path="url(#terminal-2909278872-line-22)">Discovery&#160;partial&#160;·&#160;local&#160;view&#160;·&#160;no&#160;background&#160;GitHub&#160;reads</text><text class="terminal-2909278872-r2" x="878.4" y="556.8" textLength="12.2" clip-path="url(#terminal-2909278872-line-22)">
</text><text class="terminal-2909278872-r12" x="0" y="581.2" textLength="73.2" clip-path="url(#terminal-2909278872-line-23)">&#160;pgup&#160;</text><text class="terminal-2909278872-r3" x="73.2" y="581.2" textLength="122" clip-path="url(#terminal-2909278872-line-23)">Scroll&#160;up&#160;</text><text class="terminal-2909278872-r12" x="195.2" y="581.2" textLength="73.2" clip-path="url(#terminal-2909278872-line-23)">&#160;pgdn&#160;</text><text class="terminal-2909278872-r3" x="268.4" y="581.2" textLength="146.4" clip-path="url(#terminal-2909278872-line-23)">Scroll&#160;down&#160;</text><text class="terminal-2909278872-r12" x="414.8" y="581.2" textLength="36.6" clip-path="url(#terminal-2909278872-line-23)">&#160;q&#160;</text><text class="terminal-2909278872-r3" x="451.4" y="581.2" textLength="134.2" clip-path="url(#terminal-2909278872-line-23)">Close&#160;view&#160;</text><text class="terminal-2909278872-r12" x="585.6" y="581.2" textLength="36.6" clip-path="url(#terminal-2909278872-line-23)">&#160;r&#160;</text><text class="terminal-2909278872-r3" x="622.2" y="581.2" textLength="109.8" clip-path="url(#terminal-2909278872-line-23)">Read&#160;loca</text><text class="terminal-2909278872-r13" x="732" y="581.2" textLength="12.2" clip-path="url(#terminal-2909278872-line-23)">▏</text><text class="terminal-2909278872-r12" x="744.2" y="581.2" textLength="12.2" clip-path="url(#terminal-2909278872-line-23)">^</text><text class="terminal-2909278872-r12" x="756.4" y="581.2" textLength="12.2" clip-path="url(#terminal-2909278872-line-23)">p</text><text class="terminal-2909278872-r3" x="768.6" y="581.2" textLength="97.6" clip-path="url(#terminal-2909278872-line-23)">&#160;palette</text>
    </g>
    </g>
</svg>
